<?xml version="1.0" encoding="utf-8"?>
<!-- Generator: Adobe Illustrator 25.0.0, SVG Export Plug-In . SVG Version: 6.00 Build 0)  -->
<svg version="1.1" id="icon-0" xmlns:svgjs="http://svgjs.dev/svgjs"
	 xmlns="http://www.w3.org/2000/svg" xmlns:xlink="http://www.w3.org/1999/xlink" x="0px" y="0px" viewBox="0 0 1000 1125"
	 style="enable-background:new 0 0 1000 1125;" xml:space="preserve">
<style type="text/css">
	.st0{fill:#231F20;}
	.st1{display:none;fill:none;}
</style>
<g transform="matrix(1,0,0,1,1.7053025658242404e-13,0)">
	<g id="tight-bounds" transform="matrix(1,0,0,1,0,0)">
		<g>
			<g>
				<path class="st0" d="M65.5,710.1l11.6,14.6l-5.8-18.9C69.9,697,59.7,707.2,65.5,710.1 M78.6,701.3c4.4,7.3,8.7,14.6,8.7,21.8
					c0,10.2,8.7,14.6,16,17.5C93.2,729,87.3,697,78.6,701.3 M637.6,84.2c24.7,0,48-2.9,74.2,2.9c64,16,117.9,48,154.3,93.2
					l101.9,163c4.4,40.8,13.1,85.9,11.6,135.4c10.2,0,8.7-14.6,20.4-17.5c-11.6,29.1-17.5,65.5-20.4,107.7
					c-7.3-23.3,0-58.2,1.5-77.1c-10.2,16-16,4.4-16-2.9c1.5-11.6-4.4-10.2-8.7-14.6c-16-14.6-26.2-30.6-37.8-55.3
					c7.3-18.9,8.7-46.6-14.6-61.1c-7.3-4.4-16-11.6-20.4-23.3c-5.8-16-16-34.9-13.1-59.7c1.5-7.3-21.8,16-34.9,5.8
					c-56.8-39.3-113.5-84.4-182-122.3c-36.4,0-62.6-13.1-75.7-29.1c-11.6-14.6-2.9-33.5,14.6-34.9c10.2,0,21.8-2.9,30.6,2.9
					C624.5,91.4,630.3,84.2,637.6,84.2 M493.5,50.7l2.9,1.5c14.6,2.9,21.8,23.3,37.8,16c0,10.2,1.5,20.4-1.5,27.7
					c-4.4,11.6-17.5,11.6-27.7,11.6c-97.5-5.8-154.3,34.9-214,69.9c-16,10.2-33.5,17.5-46.6,30.6c-62.6,58.2-131,112.1-147,219.8
					L84.4,547c-1.5,13.1-16,26.2-13.1,42.2l10.2,71.3c-10.2-10.2-16,2.9-13.1,8.7c1.5,4.4,7.3,18.9,16,5.8
					c11.6,21.8,23.3,64,39.3,83c49.5,58.2,113.5,110.6,165.9,163c13.1-2.9,23.3-2.9,26.2-11.6c4.4,8.7-4.4,17.5-11.6,18.9
					c23.3,14.6,49.5,27.7,84.4,30.6c45.1,2.9,87.3,10.2,126.6,20.4c20.4-5.8,40.8-8.7,62.6-10.2c7.3,0,11.6-11.6,20.4-14.6l1.5-14.6
					c8.7,13.1,7.3-4.4,1.5-13.1c10.2,8.7,13.1,16,17.5,21.8c0-4.4,11.6-20.4,11.6-1.5l2.9-18.9c4.4-2.9,5.8,16,10.2,2.9
					c4.4-13.1,13.1-2.9,21.8-7.3c-2.9,5.8-1.5,17.5,8.7,10.2l11.6-10.2c7.3,17.5,18.9,10.2,24.7,7.3c64-40.8,128.1-88.8,189.2-136.8
					l-1.5,18.9l7.3-23.3c7.3,7.3,13.1,1.5,16-2.9c8.7-14.6,20.4-29.1,39.3-42.2c-23.3,62.6-50.9,112.1-85.9,152.8l-14.6,17.5
					c0,10.2-2.9,23.3-14.6,24.7c-5.8,1.5-17.5-2.9-26.2,5.8c-4.4,5.8,10.2,17.5-1.5,8.7c-10.2-7.3-20.4,0-32,2.9
					c-8.7,2.9,5.8,11.6,8.7,17.5c2.9,5.8,5.8,11.6,4.4,18.9l-16-17.5c-18.9,10.2-30.6,29.1-46.6,43.7c-7.3,5.8-4.4,16-4.4,24.7
					c-10.2,0-21.8-2.9-27.7,2.9c-4.4,5.8-2.9,14.6-2.9,23.3c-14.6-1.5-16-23.3-29.1-18.9c-13.1,2.9-27.7,4.4-39.3,11.6
					c8.7,17.5-14.6,7.3-11.6,10.2c-21.8-13.1-40.8-23.3-64-14.6c-49.5-16-110.6-8.7-155.7-2.9c0-7.3,1.5-14.6-1.5-16
					c-2.9,7.3-11.6,4.4-10.2,4.4c-27.7-18.9-55.3-30.6-84.4-46.6c-26.2,2.9-50.9-10.2-58.2-17.5c-20.4-18.9-43.7-8.7-62.6-13.1
					c-40.8-10.2-55.3-52.4-59.7-81.5c-2.9-14.6-14.6-20.4-18.9-18.9c-18.9-61.1-48-116.4-71.3-173.2c-5.8-14.6-4.4-29.1-4.4-45.1
					c7.3,2.9,14.6,1.5,13.1-8.7c-7.3-48-24.7-84.4-43.7-119.4c10.2-49.5,11.6-107.7,34.9-151.4c20.4-39.3,58.2-59.7,84.4-93.2
					c8.7-11.6,8.7-27.7,17.5-37.8c29.1-29.1,58.2-59.7,90.2-85.9c14.6-11.6,32,0,53.9-4.4c7.3-26.2,36.4-49.5,64-42.2
					c11.6,2.9,34.9-27.7,42.2-30.6c11.6-4.4,5.8,11.6,5.8,21.8C420.7,75.4,458.5,63.8,493.5,50.7"/>
			</g>
			<g transform="matrix(1,0,0,1,64,94.3295466410777)">
				<g>
					<g>
						<g transform="matrix(1,0,0,1,0,103.56161164495293)">
							<g>
								<g>
									<g transform="matrix(1,0,0,1,0,0)">
										<path id="text-0" class="st0" d="M240.6,503.7v60.2l-3.5,4.4c-10.2,11.9-25.1,17.8-44.7,17.8l0,0
											c-17.4,0-31.1-5.8-41-17.3c-9.9-11.5-15-27.9-15.2-49l0,0v-31.7c0-22.6,4.5-39.5,13.6-50.7c9-11.3,22.6-16.9,40.6-16.9
											l0,0c15.3,0,27.3,4.3,36,12.9c8.7,8.6,13.5,20.8,14.3,36.6l0,0h-20.2c-0.8-10-3.6-17.9-8.4-23.5c-4.7-5.7-12-8.5-21.6-8.5
											l0,0c-11.6,0-20.1,3.8-25.4,11.3c-5.4,7.6-8.2,19.7-8.4,36.3l0,0v32.9c0,16.2,3.1,28.7,9.3,37.4c6.2,8.7,15.1,13,26.7,13
											l0,0c10.9,0,19.3-2.7,24.9-8l0,0l3-2.8V521h-29.5v-17.3H240.6z M320.3,463.5l0.1,19c-2.7-0.5-5.7-0.8-8.8-0.8l0,0
											c-10,0-17.1,5.5-21,16.5l0,0v85.7h-19.6V464.1h19l0.3,12.2c5.3-9.6,12.7-14.4,22.3-14.4l0,0
											C315.6,462,318.2,462.5,320.3,463.5L320.3,463.5z M333.6,531.6v-13.1c0-17.4,4.2-31.2,12.7-41.4
											c8.5-10.1,19.6-15.2,33.5-15.2s25,4.9,33.5,14.8c8.5,9.9,12.8,23.4,13,40.4l0,0v12.6c0,17.4-4.2,31.1-12.6,41.2
											c-8.4,10.1-19.6,15.2-33.6,15.2l0,0c-13.9,0-25-4.9-33.4-14.7C338.2,561.6,333.8,548.3,333.6,531.6L333.6,531.6z
											 M353.2,518.4v11.4c0,12.3,2.4,22,7.3,29.1c4.8,7,11.4,10.6,19.5,10.6l0,0c17.3,0,26.1-12.5,26.7-37.4l0,0v-13.5
											c0-12.2-2.4-21.9-7.3-29.1c-4.9-7.1-11.4-10.7-19.6-10.7l0,0c-8,0-14.5,3.6-19.3,10.7
											C355.6,496.6,353.2,506.2,353.2,518.4L353.2,518.4z M447.3,531.6v-13.1c0-17.4,4.2-31.2,12.7-41.4
											c8.4-10.1,19.6-15.2,33.5-15.2s25,4.9,33.5,14.8c8.4,9.9,12.8,23.4,13,40.4l0,0v12.6c0,17.4-4.2,31.1-12.7,41.2
											c-8.4,10.1-19.6,15.2-33.6,15.2l0,0c-13.9,0-25-4.9-33.4-14.7C452,561.6,447.6,548.3,447.3,531.6L447.3,531.6z
											 M466.9,518.4v11.4c0,12.3,2.4,22,7.3,29.1c4.8,7,11.4,10.6,19.5,10.6l0,0c17.3,0,26.2-12.5,26.7-37.4l0,0v-13.5
											c0-12.2-2.4-21.9-7.3-29.1c-4.9-7.1-11.4-10.7-19.6-10.7l0,0c-8,0-14.5,3.6-19.3,10.7
											C469.3,496.6,466.9,506.2,466.9,518.4L466.9,518.4z M574,464.1l23.6,90l22.7-90h20l-35.6,119.8H590l-36-119.8H574z
											 M671.2,464.1l22.2,87.2l21.8-87.2h20.8l-39.2,136.8c-2.9,10.2-7.1,18-12.5,23.4c-5.4,5.4-11.5,8-18.4,8l0,0
											c-2.7,0-6.1-0.6-10.2-1.8l0,0V614l4.4,0.4c5.7,0,10.1-1.3,13.3-4c3.2-2.7,5.8-7.4,7.8-14l0,0l3.9-13.4l-35.2-118.8H671.2z
											"/>
									</g>
								</g>
							</g>
						</g>
						<g transform="matrix(1,0,0,1,54.12793620943306,0)">
							<g>
								<path class="st0" d="M512.7,213.4c0-7.1-5.7-12.8-12.8-12.8l-169.8-0.1c-7.1,0-12.8,5.7-12.8,12.8v177.1
									c-4.4-1.2-9.1-1.9-13.9-1.9c-28.9,0-52.3,23.4-52.3,52.3s23.4,52.4,52.3,52.4c28.2,0,52.3-21.8,52.3-50.2
									c0-0.3,0.1-143.9,0.1-143.9c0-3.7,3-6.7,6.7-6.7l0,0l105.4,0c3.5,0.2,6.3,3.1,6.3,6.7l0-0.1v79.5c-4.4-1.2-9.1-1.9-13.9-1.9
									c-28.9,0-52.4,23.4-52.4,52.3c0,28.9,23.4,52.4,52.4,52.4c28.2,0,51.2-22.3,52.3-50.2C512.7,430.9,512.7,213.4,512.7,213.4z
									"/>
							</g>
						</g>
					</g>
				</g>
			</g>
		</g>
		<rect class="st1" width="1000" height="1125"/>
	</g>
</g>
</svg>
