<svg xmlns="http://www.w3.org/2000/svg" version="1.1" xmlns:xlink="http://www.w3.org/1999/xlink" xmlns:svgjs="http://svgjs.dev/svgjs" width="1000" height="1000" viewBox="0 0 1000 1000"><rect width="1000" height="1000" fill="#ffffff"></rect><g transform="matrix(0.7,0,0,0.7,150.0000000000001,106.25)"><svg viewBox="0 0 320 360" data-background-color="#ffffff" preserveAspectRatio="xMidYMid meet" height="1125" width="1000" xmlns="http://www.w3.org/2000/svg" xmlns:xlink="http://www.w3.org/1999/xlink"><g id="tight-bounds" transform="matrix(1,0,0,1,0,0)"><svg viewBox="0 0 320 360" height="360" width="320"><g><svg></svg></g><g><svg viewBox="0 0 320 360" height="360" width="320"><g><path xmlns="http://www.w3.org/2000/svg" d="M20.961 227.22l3.726 4.658-1.863-6.056c-0.466-2.795-3.726 0.466-1.863 1.398M25.153 224.425c1.397 2.329 2.795 4.658 2.795 6.987 0 3.261 2.795 4.658 5.123 5.589-3.261-3.726-5.124-13.974-7.918-12.576M204.017 26.929c7.918 0 15.371-0.932 23.756 0.931 20.495 5.124 37.729 15.371 49.374 29.811l32.606 52.169c1.397 13.042 4.192 27.482 3.726 43.319 3.261 0 2.795-4.658 6.521-5.59-3.726 9.316-5.59 20.961-6.521 34.469-2.329-7.453 0-18.632 0.466-24.687-3.261 5.124-5.124 1.397-5.124-0.932 0.466-3.726-1.397-3.261-2.795-4.658-5.124-4.658-8.384-9.782-12.11-17.7 2.329-6.055 2.795-14.905-4.658-19.563-2.329-1.397-5.124-3.726-6.521-7.453-1.863-5.124-5.124-11.179-4.193-19.097 0.466-2.329-6.987 5.124-11.179 1.863-18.166-12.576-36.332-27.016-58.224-39.127-11.645 0-20.029-4.192-24.221-9.316-3.726-4.658-0.932-10.713 4.658-11.179 3.261 0 6.987-0.932 9.782 0.932 0.466-1.863 2.329-4.192 4.657-4.192M157.904 16.215l0.932 0.466c4.658 0.932 6.987 7.453 12.11 5.124 0 3.261 0.466 6.521-0.466 8.85-1.397 3.726-5.59 3.726-8.85 3.726-31.208-1.863-49.374 11.179-68.471 22.358-5.124 3.261-10.713 5.59-14.906 9.782-20.029 18.632-41.921 35.866-47.045 70.335l-4.192 38.195c-0.466 4.192-5.124 8.384-4.192 13.508l3.26 22.824c-3.261-3.261-5.124 0.932-4.192 2.795 0.466 1.397 2.329 6.055 5.124 1.863 3.726 6.987 7.453 20.495 12.576 26.55 15.837 18.632 36.332 35.4 53.101 52.169 4.192-0.932 7.453-0.932 8.384-3.727 1.397 2.795-1.397 5.59-3.726 6.056 7.453 4.658 15.837 8.85 27.016 9.781 14.44 0.932 27.948 3.261 40.524 6.522 6.521-1.863 13.042-2.795 20.029-3.261 2.329 0 3.726-3.726 6.521-4.658l0.466-4.658c2.795 4.192 2.329-1.397 0.466-4.192 3.261 2.795 4.192 5.124 5.589 6.987 0-1.397 3.726-6.521 3.727-0.466l0.931-6.055c1.397-0.932 1.863 5.124 3.261 0.931 1.397-4.192 4.192-0.932 6.987-2.329-0.932 1.863-0.466 5.59 2.794 3.261l3.727-3.261c2.329 5.59 6.055 3.261 7.918 2.329 20.495-13.042 40.99-28.413 60.553-43.784l-0.466 6.055 2.329-7.453c2.329 2.329 4.192 0.466 5.124-0.931 2.795-4.658 6.521-9.316 12.577-13.508-7.453 20.029-16.303 35.866-27.482 48.908l-4.658 5.59c0 3.261-0.932 7.453-4.658 7.918-1.863 0.466-5.59-0.932-8.384 1.863-1.397 1.863 3.261 5.59-0.466 2.795-3.261-2.329-6.521 0-10.248 0.932-2.795 0.932 1.863 3.726 2.795 5.589 0.932 1.863 1.863 3.726 1.398 6.056l-5.124-5.59c-6.055 3.261-9.782 9.316-14.906 13.974-2.329 1.863-1.397 5.124-1.397 7.918-3.261 0-6.987-0.932-8.85 0.932-1.397 1.863-0.932 4.658-0.932 7.453-4.658-0.466-5.124-7.453-9.315-6.056-4.192 0.932-8.85 1.397-12.577 3.727 2.795 5.59-4.658 2.329-3.726 3.26-6.987-4.192-13.042-7.453-20.495-4.658-15.837-5.124-35.4-2.795-49.84-0.931 0-2.329 0.466-4.658-0.466-5.124-0.932 2.329-3.726 1.397-3.26 1.397-8.85-6.055-17.7-9.782-27.016-14.905-8.384 0.932-16.303-3.261-18.632-5.59-6.521-6.055-13.974-2.795-20.029-4.192-13.042-3.261-17.7-16.769-19.098-26.084-0.932-4.658-4.658-6.521-6.055-6.056-6.055-19.563-15.371-37.263-22.824-55.429-1.863-4.658-1.397-9.316-1.397-14.44 2.329 0.932 4.658 0.466 4.192-2.794-2.329-15.371-7.918-27.016-13.974-38.195 3.261-15.837 3.726-34.469 11.179-48.443 6.521-12.576 18.632-19.098 27.016-29.811 2.795-3.726 2.795-8.85 5.59-12.11 9.316-9.316 18.632-19.098 28.879-27.482 4.658-3.726 10.247 0 17.234-1.397 2.329-8.384 11.645-15.837 20.495-13.508 3.726 0.932 11.179-8.85 13.508-9.782 3.726-1.397 1.863 3.726 1.863 6.987 8.85-6.987 20.961-10.713 32.14-14.906" fill="#89939e" fill-rule="nonzero" stroke="none" stroke-width="1" stroke-linecap="butt" stroke-linejoin="miter" stroke-miterlimit="10" stroke-dasharray="" stroke-dashoffset="0" font-family="none" font-weight="none" font-size="none" text-anchor="none" style="mix-blend-mode: normal" data-fill-palette-color="tertiary"></path></g><g transform="matrix(1,0,0,1,64,94.3295466410777)"><svg viewBox="0 0 192 171.3409067178446" height="171.3409067178446" width="192"><g><svg viewBox="0 0 192 171.3409067178446" height="171.3409067178446" width="192"><g><svg viewBox="0 0 192 171.3409067178446" height="171.3409067178446" width="192"><g transform="matrix(1,0,0,1,0,103.56161164495293)"><svg viewBox="0 0 192 67.77929507289167" height="67.77929507289167" width="192"><g><svg viewBox="0 0 192 67.77929507289167" height="67.77929507289167" width="192"><g><svg viewBox="0 0 192 67.77929507289167" height="67.77929507289167" width="192"><g transform="matrix(1,0,0,1,0,0)"><svg width="192" viewBox="3.0299999713897705 -36.040000915527344 132.27999877929688 46.709999084472656" height="67.77929507289167" data-palette-color="#89939e"><path d="M26.07-17.7L26.07-4.42 25.29-3.44Q21.92 0.49 15.43 0.49L15.43 0.49Q9.67 0.49 6.38-3.33 3.1-7.15 3.03-14.14L3.03-14.14 3.03-21.12Q3.03-28.59 6.02-32.31 9.01-36.04 14.97-36.04L14.97-36.04Q20.04-36.04 22.91-33.2 25.78-30.37 26.07-25.12L26.07-25.12 21.61-25.12Q21.34-28.44 19.76-30.31 18.19-32.18 14.99-32.18L14.99-32.18Q11.16-32.18 9.38-29.68 7.59-27.17 7.52-21.68L7.52-21.68 7.52-14.43Q7.52-9.06 9.57-6.19 11.62-3.32 15.45-3.32L15.45-3.32Q19.07-3.32 20.95-5.08L20.95-5.08 21.61-5.69 21.61-13.89 15.11-13.89 15.11-17.7 26.07-17.7ZM43.65-26.56L43.67-22.36Q42.77-22.53 41.72-22.53L41.72-22.53Q38.4-22.53 37.08-18.9L37.08-18.9 37.08 0 32.76 0 32.76-26.42 36.96-26.42 37.03-23.73Q38.77-26.9 41.94-26.9L41.94-26.9Q42.97-26.9 43.65-26.56L43.65-26.56ZM46.58-11.55L46.58-14.43Q46.58-20.19 49.37-23.55 52.17-26.9 56.76-26.9 61.35-26.9 64.14-23.63 66.94-20.36 67.01-14.72L67.01-14.72 67.01-11.94Q67.01-6.2 64.23-2.86 61.45 0.49 56.81 0.49L56.81 0.49Q52.22 0.49 49.45-2.76 46.67-6.01 46.58-11.55L46.58-11.55ZM50.9-14.45L50.9-11.94Q50.9-7.86 52.5-5.53 54.1-3.2 56.81-3.2L56.81-3.2Q62.52-3.2 62.69-11.45L62.69-11.45 62.69-14.43Q62.69-18.48 61.08-20.84 59.47-23.19 56.76-23.19L56.76-23.19Q54.1-23.19 52.5-20.84 50.9-18.48 50.9-14.45L50.9-14.45ZM71.67-11.55L71.67-14.43Q71.67-20.19 74.47-23.55 77.26-26.9 81.85-26.9 86.44-26.9 89.24-23.63 92.03-20.36 92.11-14.72L92.11-14.72 92.11-11.94Q92.11-6.2 89.32-2.86 86.54 0.49 81.9 0.49L81.9 0.49Q77.31 0.49 74.54-2.76 71.77-6.01 71.67-11.55L71.67-11.55ZM75.99-14.45L75.99-11.94Q75.99-7.86 77.59-5.53 79.19-3.2 81.9-3.2L81.9-3.2Q87.61-3.2 87.79-11.45L87.79-11.45 87.79-14.43Q87.79-18.48 86.17-20.84 84.56-23.19 81.85-23.19L81.85-23.19Q79.19-23.19 77.59-20.84 75.99-18.48 75.99-14.45L75.99-14.45ZM99.6-26.42L104.8-6.57 109.8-26.42 114.2-26.42 106.36 0 103.14 0 95.2-26.42 99.6-26.42ZM121.03-26.42L125.92-7.18 130.72-26.42 135.31-26.42 126.67 3.74Q125.7 7.13 123.91 8.9 122.13 10.67 119.86 10.67L119.86 10.67Q118.98 10.67 117.61 10.28L117.61 10.28 117.61 6.62 118.57 6.71Q120.45 6.71 121.51 5.82 122.57 4.93 123.23 2.73L123.23 2.73 124.08-0.22 116.32-26.42 121.03-26.42Z" opacity="1" transform="matrix(1,0,0,1,0,0)" fill="#89939e" class="undefined-text-0" data-fill-palette-color="primary" id="text-0"></path></svg></g></svg></g></svg></g></svg></g><g transform="matrix(1,0,0,1,54.12793620943306,0)"><svg viewBox="0 0 83.74412758113388 93.6709857907363" height="93.6709857907363" width="83.74412758113388"><g><svg xmlns="http://www.w3.org/2000/svg" xmlns:xlink="http://www.w3.org/1999/xlink" version="1.1" x="0" y="0" viewBox="18.134002685546875 19.195999145507812 56.11164093017578 62.76300048828125" enable-background="new 0 0 100 100" xml:space="preserve" height="93.6709857907363" width="83.74412758113388" class="icon-icon-0" data-fill-palette-color="accent" id="icon-0"><path fill="#89939e" d="M74.245 21.972c0-1.518-1.231-2.749-2.75-2.749l-36.412-0.027c-1.519 0-2.748 1.231-2.748 2.749v37.964c-0.949-0.263-1.947-0.399-2.979-0.399-6.198 0-11.222 5.024-11.222 11.223 0 6.199 5.024 11.226 11.222 11.226 6.046 0 11.215-4.677 11.215-10.769 0.007-0.073 0.022-30.853 0.022-30.853 0.01-0.791 0.651-1.429 1.445-1.429l-0.001-0.001 22.602 0.01C65.398 38.962 66 39.585 66 40.355l0.005-0.017v17.051c-0.948-0.262-1.946-0.397-2.978-0.397-6.198 0-11.226 5.022-11.226 11.223 0 6.198 5.025 11.226 11.226 11.226 6.045 0 10.974-4.78 11.214-10.769C74.248 68.598 74.245 21.972 74.245 21.972z" data-fill-palette-color="accent"></path></svg></g></svg></g><g></g></svg></g></svg></g></svg></g></svg></g><defs></defs></svg><rect width="320" height="360" fill="none" stroke="none" visibility="hidden"></rect></g></svg></g></svg>